# xmcd
#
# Track frame offsets: 
#        150
#        12648
#        23550
#        33012
#        44292
#        55410
#        67341
#        82856
#        100511
#        113411
#        125543
#        135237
#        146465
#        163614
#        175345
#        186562
#        197565
#        210161
#
# Disc length: 3085 seconds
#
# Revision: 0
# Processed by: cddbd v1.5.2PL0 Copyright (c) Steve Scherf et al.
# Submitted via: ExactAudioCopy v1.0b3
#
DISCID=e90c0b12
DTITLE=Various Artist - Lonesome cowboys
DYEAR=1900
DGENRE=Country
TTITLE0=Bobby Bare - 500 miles from home
TTITLE1=Jerry Wallace - Primrose lane
TTITLE2=Charley Pride - Kiss an angel goodmorning
TTITLE3=Sonny James - Young love
TTITLE4=Conway Twitty - If's only make beleive
TTITLE5=Gene Simmons - Catahoula cur dogs
TTITLE6=Ray Price - How do i hide from a memory
TTITLE7=Johnny Lee - Looking for love
TTITLE8=Jimmy Reed - Let's get together
TTITLE9=Don Gibson - Run boy
TTITLE10=Dave Dudley - Cowboy boots
TTITLE11=Sonny James - Jenny Lou
TTITLE12=Glen Campbell - Southern nights
TTITLE13=Don David JR. - Cowboy on the run
TTITLE14=Johnny Cash - Mean eyed cat
TTITLE15=Carl Perkins - Dixiefriend
TTITLE16=Sammy Texas Johnson - The other woman
TTITLE17=John Denver - Poems prayers and promises
EXTD=
EXTT0=
EXTT1=
EXTT2=
EXTT3=
EXTT4=
EXTT5=
EXTT6=
EXTT7=
EXTT8=
EXTT9=
EXTT10=
EXTT11=
EXTT12=
EXTT13=
EXTT14=
EXTT15=
EXTT16=
EXTT17=
PLAYORDER=
